<svg xmlns="http://www.w3.org/2000/svg" xmlns:xlink="http://www.w3.org/1999/xlink" width="1280" height="710" fill="none" viewBox="0 0 1280 710">
  <g clip-path="url(#a)">
    <path fill="#E5E6F0" d="M0 0h1280v710H0z"/>
    <ellipse cx="13" cy="714.334" fill="#7896B7" rx="362" ry="361.666"/>
    <ellipse cx="13" cy="714.334" fill="#738EAC" rx="286" ry="285.736"/>
    <ellipse cx="13" cy="714.334" fill="#67819D" rx="219" ry="218.798"/>
    <path fill="#7896B7" d="M685.5 133.871C549.9 146.659 457.667 45.952 428.5-6l864 3.497v717.337H1196c-298.8-37.965-248.5-189.325-186-260.26 36.5-49.787 102.5-169.743 74.5-251.267-35-101.906-229.5-85.421-399-69.436Z"/>
    <path fill="url(#b)" d="M583 22h104v111H583z"/>
    <path fill="#3C3939" d="M447.931 218v-17.455h6.989c1.284 0 2.355.191 3.213.571.858.381 1.503.91 1.934 1.586.432.67.648 1.443.648 2.318 0 .682-.136 1.281-.409 1.798a3.536 3.536 0 0 1-1.125 1.262 4.614 4.614 0 0 1-1.619.69v.17a3.907 3.907 0 0 1 1.866.563c.585.346 1.06.832 1.424 1.457.363.62.545 1.358.545 2.216 0 .926-.23 1.753-.69 2.48-.455.722-1.128 1.293-2.02 1.713-.892.421-1.992.631-3.299.631h-7.457Zm3.69-3.017h3.009c1.028 0 1.778-.196 2.25-.588.472-.398.707-.926.707-1.585 0-.483-.116-.909-.349-1.279a2.372 2.372 0 0 0-.997-.869c-.426-.21-.935-.315-1.526-.315h-3.094v4.636Zm0-7.134h2.736c.506 0 .955-.088 1.347-.264.398-.182.71-.437.937-.767.233-.329.35-.724.35-1.184 0-.631-.225-1.14-.674-1.526-.443-.386-1.073-.58-1.892-.58h-2.804v4.321Zm22.959-7.304h3.69v11.336c0 1.272-.304 2.386-.912 3.341-.602.954-1.446 1.698-2.531 2.233-1.086.528-2.35.792-3.793.792-1.449 0-2.716-.264-3.801-.792-1.085-.535-1.929-1.279-2.531-2.233-.603-.955-.904-2.069-.904-3.341v-11.336h3.691v11.02c0 .665.145 1.256.434 1.773a3.18 3.18 0 0 0 1.245 1.219c.534.295 1.156.443 1.866.443.716 0 1.338-.148 1.867-.443a3.109 3.109 0 0 0 1.235-1.219c.296-.517.444-1.108.444-1.773v-11.02ZM481.306 218v-17.455h6.886c1.324 0 2.452.253 3.384.759.932.5 1.642 1.196 2.131 2.088.494.886.741 1.909.741 3.068s-.25 2.182-.75 3.068c-.5.887-1.224 1.577-2.173 2.071-.943.495-2.085.742-3.426.742h-4.389v-2.957h3.792c.71 0 1.296-.123 1.756-.367.466-.25.812-.594 1.04-1.031.233-.443.349-.952.349-1.526 0-.579-.116-1.085-.349-1.517a2.341 2.341 0 0 0-1.04-1.014c-.466-.244-1.057-.367-1.773-.367h-2.489V218h-3.69Zm21.094 0v-17.455h3.69v14.412h7.483V218H502.4Zm19.515.256c-1.347 0-2.506-.273-3.477-.818a5.604 5.604 0 0 1-2.233-2.336c-.523-1.011-.785-2.207-.785-3.588 0-1.346.262-2.528.785-3.545a5.789 5.789 0 0 1 2.207-2.378c.954-.568 2.074-.852 3.358-.852.864 0 1.668.139 2.412.417.75.273 1.403.685 1.96 1.236.563.551 1 1.244 1.313 2.08.312.829.468 1.801.468 2.914v.998h-11.054v-2.25h7.637c0-.523-.114-.986-.341-1.39a2.45 2.45 0 0 0-.946-.946c-.398-.233-.861-.349-1.389-.349-.552 0-1.04.128-1.466.383-.421.25-.75.588-.989 1.015a2.85 2.85 0 0 0-.366 1.406v2.139c0 .648.119 1.207.357 1.679.245.472.589.835 1.032 1.091.443.256.968.383 1.576.383a3.42 3.42 0 0 0 1.108-.17c.336-.114.623-.284.861-.511.239-.228.421-.506.546-.836l3.358.222a4.59 4.59 0 0 1-1.049 2.114c-.522.596-1.199 1.062-2.028 1.397-.824.33-1.776.495-2.855.495Zm12.111-.009c-.836 0-1.58-.145-2.233-.435a3.596 3.596 0 0 1-1.552-1.303c-.375-.58-.562-1.302-.562-2.165 0-.728.134-1.338.401-1.833.267-.494.63-.892 1.09-1.193a5.315 5.315 0 0 1 1.569-.682c.591-.153 1.21-.261 1.858-.324a46.616 46.616 0 0 0 1.841-.221c.465-.074.803-.182 1.014-.324.21-.142.315-.352.315-.631v-.051c0-.54-.17-.957-.511-1.253-.336-.295-.813-.443-1.432-.443-.654 0-1.173.145-1.56.435a2.001 2.001 0 0 0-.767 1.074l-3.358-.273a4.575 4.575 0 0 1 1.006-2.063c.5-.585 1.145-1.034 1.935-1.346.795-.318 1.715-.477 2.761-.477a8.4 8.4 0 0 1 2.088.255c.67.171 1.264.435 1.781.793.523.358.935.818 1.236 1.381.301.556.452 1.224.452 2.002V218h-3.443v-1.815h-.103c-.21.409-.491.77-.843 1.082a3.91 3.91 0 0 1-1.27.724c-.495.171-1.066.256-1.713.256Zm1.039-2.506c.534 0 1.006-.105 1.415-.315.409-.216.73-.506.963-.869.233-.364.35-.776.35-1.236v-1.389c-.114.074-.27.142-.469.204a8.41 8.41 0 0 1-.656.162c-.245.046-.489.088-.733.128l-.665.094a4.502 4.502 0 0 0-1.117.298 1.79 1.79 0 0 0-.741.554c-.176.227-.264.512-.264.852 0 .495.179.873.537 1.134.363.256.824.383 1.38.383Zm20.885-10.832L551.374 218h-4.091l-4.577-13.091h3.835l2.719 9.367h.136l2.711-9.367h3.843Zm7.402 13.347c-1.346 0-2.505-.273-3.477-.818a5.61 5.61 0 0 1-2.233-2.336c-.523-1.011-.784-2.207-.784-3.588 0-1.346.261-2.528.784-3.545a5.802 5.802 0 0 1 2.207-2.378c.955-.568 2.074-.852 3.358-.852.864 0 1.668.139 2.412.417a5.36 5.36 0 0 1 1.961 1.236c.562.551 1 1.244 1.312 2.08.313.829.469 1.801.469 2.914v.998h-11.054v-2.25h7.636c0-.523-.113-.986-.341-1.39a2.444 2.444 0 0 0-.946-.946c-.397-.233-.861-.349-1.389-.349a2.8 2.8 0 0 0-1.466.383c-.42.25-.75.588-.989 1.015-.238.42-.36.889-.366 1.406v2.139c0 .648.119 1.207.358 1.679.244.472.588.835 1.031 1.091.443.256.969.383 1.577.383.403 0 .773-.056 1.108-.17.335-.114.622-.284.861-.511.238-.228.42-.506.545-.836l3.358.222a4.588 4.588 0 0 1-1.048 2.114c-.523.596-1.199 1.062-2.029 1.397-.823.33-1.775.495-2.855.495Zm14.001-.256v-17.455h6.886c1.319 0 2.444.236 3.375.708.938.466 1.651 1.128 2.14 1.986.494.852.741 1.855.741 3.008 0 1.159-.25 2.156-.75 2.992-.5.829-1.224 1.466-2.173 1.909-.943.443-2.085.664-3.426.664h-4.611v-2.965h4.014c.705 0 1.29-.097 1.756-.29.466-.193.812-.483 1.039-.869.233-.387.35-.867.35-1.441 0-.579-.117-1.068-.35-1.466-.227-.397-.576-.699-1.048-.903-.466-.21-1.054-.316-1.764-.316h-2.489V218h-3.69Zm9.426-7.943 4.338 7.943h-4.074l-4.244-7.943h3.98Zm12.011 8.199c-1.347 0-2.506-.273-3.478-.818a5.608 5.608 0 0 1-2.232-2.336c-.523-1.011-.785-2.207-.785-3.588 0-1.346.262-2.528.785-3.545a5.789 5.789 0 0 1 2.207-2.378c.954-.568 2.074-.852 3.358-.852.864 0 1.668.139 2.412.417.75.273 1.403.685 1.96 1.236.563.551 1 1.244 1.313 2.08.312.829.468 1.801.468 2.914v.998h-11.054v-2.25h7.637c0-.523-.114-.986-.341-1.39a2.45 2.45 0 0 0-.946-.946c-.398-.233-.861-.349-1.389-.349-.552 0-1.04.128-1.466.383-.421.25-.75.588-.989 1.015a2.85 2.85 0 0 0-.366 1.406v2.139c0 .648.119 1.207.357 1.679.245.472.589.835 1.032 1.091.443.256.968.383 1.576.383a3.42 3.42 0 0 0 1.108-.17c.336-.114.623-.284.861-.511.239-.228.421-.506.546-.836l3.358.222a4.59 4.59 0 0 1-1.049 2.114c-.522.596-1.199 1.062-2.028 1.397-.824.33-1.776.495-2.855.495Zm14.275 4.926c-1.176 0-2.184-.162-3.025-.486-.835-.318-1.5-.753-1.995-1.304a4.012 4.012 0 0 1-.963-1.858l3.358-.452c.103.262.265.506.486.733.222.228.514.409.878.546.369.142.818.213 1.347.213.789 0 1.44-.193 1.951-.58.517-.38.776-1.02.776-1.917v-2.395h-.154a3.457 3.457 0 0 1-.715 1.031c-.319.324-.728.588-1.228.793-.5.204-1.096.306-1.79.306-.982 0-1.877-.227-2.684-.681-.801-.461-1.441-1.162-1.918-2.105-.471-.949-.707-2.148-.707-3.597 0-1.483.241-2.722.724-3.716.483-.994 1.125-1.739 1.926-2.233a4.982 4.982 0 0 1 2.651-.741c.733 0 1.347.125 1.841.375.494.244.892.551 1.193.92.307.364.543.722.707 1.074h.137v-2.199h3.605v13.219c0 1.113-.273 2.045-.818 2.795-.546.75-1.301 1.313-2.267 1.688-.961.38-2.066.571-3.316.571Zm.077-8.097c.585 0 1.08-.145 1.483-.434.409-.296.722-.716.937-1.262.222-.551.333-1.21.333-1.977 0-.767-.108-1.432-.324-1.994-.216-.569-.528-1.009-.937-1.321-.41-.313-.907-.469-1.492-.469-.597 0-1.099.162-1.508.486-.41.318-.719.761-.929 1.329-.211.568-.316 1.225-.316 1.969 0 .756.105 1.409.316 1.96.215.546.525.969.929 1.27.409.295.911.443 1.508.443Zm9.213 2.915v-13.091h3.631V218h-3.631Zm1.824-14.778c-.54 0-1.003-.179-1.389-.537-.381-.364-.571-.799-.571-1.304 0-.5.19-.929.571-1.287a1.953 1.953 0 0 1 1.389-.546c.54 0 1 .182 1.381.546.386.358.579.787.579 1.287 0 .505-.193.94-.579 1.304a1.944 1.944 0 0 1-1.381.537Zm15.607 5.42-3.324.205a1.708 1.708 0 0 0-.366-.767 1.946 1.946 0 0 0-.742-.554c-.301-.142-.662-.214-1.082-.214-.562 0-1.037.12-1.423.358-.387.233-.58.546-.58.938 0 .312.125.577.375.793.25.215.679.389 1.287.519l2.369.478c1.273.261 2.222.682 2.847 1.261.625.58.938 1.341.938 2.284 0 .858-.253 1.611-.759 2.259-.5.647-1.188 1.153-2.063 1.517-.869.358-1.872.537-3.008.537-1.733 0-3.114-.361-4.142-1.083-1.023-.727-1.622-1.716-1.798-2.966l3.571-.187c.108.528.369.932.784 1.21.415.273.946.409 1.593.409.637 0 1.148-.122 1.535-.366.392-.25.59-.571.596-.963-.006-.33-.145-.6-.417-.81-.273-.216-.694-.381-1.262-.494l-2.267-.452c-1.278-.256-2.23-.699-2.855-1.33-.619-.63-.929-1.434-.929-2.412 0-.84.227-1.565.682-2.173.46-.608 1.105-1.077 1.935-1.406.835-.33 1.812-.494 2.931-.494 1.654 0 2.955.349 3.904 1.048.954.699 1.511 1.65 1.67 2.855Zm9.548-3.733v2.727h-7.884v-2.727h7.884Zm-6.094-3.136h3.631v12.204c0 .335.051.597.153.784.102.182.244.31.426.384.188.074.404.111.648.111.17 0 .341-.015.511-.043l.392-.077.571 2.702c-.181.057-.437.122-.767.196-.329.08-.73.128-1.201.145-.875.034-1.642-.082-2.301-.349a3.215 3.215 0 0 1-1.526-1.245c-.364-.562-.543-1.273-.537-2.13v-12.682Zm14.284 16.483c-1.346 0-2.506-.273-3.477-.818a5.61 5.61 0 0 1-2.233-2.336c-.523-1.011-.784-2.207-.784-3.588 0-1.346.261-2.528.784-3.545s1.258-1.81 2.207-2.378c.955-.568 2.074-.852 3.358-.852.864 0 1.668.139 2.412.417.75.273 1.404.685 1.96 1.236.563.551 1 1.244 1.313 2.08.312.829.469 1.801.469 2.914v.998h-11.054v-2.25h7.636c0-.523-.114-.986-.341-1.39a2.444 2.444 0 0 0-.946-.946c-.398-.233-.861-.349-1.389-.349a2.8 2.8 0 0 0-1.466.383c-.42.25-.75.588-.989 1.015-.238.42-.36.889-.366 1.406v2.139c0 .648.119 1.207.358 1.679.244.472.588.835 1.031 1.091.443.256.969.383 1.577.383.403 0 .773-.056 1.108-.17.335-.114.622-.284.861-.511.238-.228.42-.506.545-.836l3.358.222a4.588 4.588 0 0 1-1.048 2.114c-.523.596-1.199 1.062-2.029 1.397-.824.33-1.775.495-2.855.495Zm8.378-.256v-13.091h3.52v2.284h.136c.239-.812.639-1.426 1.202-1.841a3.16 3.16 0 0 1 1.943-.63 5.414 5.414 0 0 1 1.142.127v3.222a4.655 4.655 0 0 0-.707-.136 6.322 6.322 0 0 0-.827-.06c-.534 0-1.011.116-1.432.349a2.574 2.574 0 0 0-.988.955c-.239.409-.358.881-.358 1.415V218h-3.631Zm15.443-17.455h4.551l4.807 11.728h.205l4.806-11.728h4.552V218h-3.58v-11.361h-.145l-4.517 11.276h-2.437l-4.517-11.318h-.145V218h-3.58v-17.455Zm25.626 17.702c-.835 0-1.58-.145-2.233-.435a3.594 3.594 0 0 1-1.551-1.303c-.375-.58-.563-1.302-.563-2.165 0-.728.134-1.338.401-1.833a3.246 3.246 0 0 1 1.091-1.193 5.31 5.31 0 0 1 1.568-.682c.591-.153 1.21-.261 1.858-.324a46.616 46.616 0 0 0 1.841-.221c.466-.074.804-.182 1.014-.324.21-.142.315-.352.315-.631v-.051c0-.54-.17-.957-.511-1.253-.335-.295-.813-.443-1.432-.443-.653 0-1.173.145-1.559.435a1.998 1.998 0 0 0-.768 1.074l-3.357-.273a4.563 4.563 0 0 1 1.005-2.063c.5-.585 1.145-1.034 1.935-1.346.795-.318 1.716-.477 2.761-.477.727 0 1.424.085 2.088.255a5.482 5.482 0 0 1 1.782.793c.522.358.934.818 1.235 1.381.301.556.452 1.224.452 2.002V218H710.9v-1.815h-.102c-.211.409-.492.77-.844 1.082a3.9 3.9 0 0 1-1.27.724c-.494.171-1.065.256-1.713.256Zm1.04-2.506c.534 0 1.005-.105 1.414-.315.41-.216.731-.506.963-.869.233-.364.35-.776.35-1.236v-1.389c-.114.074-.27.142-.469.204a8.41 8.41 0 0 1-.656.162c-.244.046-.489.088-.733.128l-.665.094a4.481 4.481 0 0 0-1.116.298 1.792 1.792 0 0 0-.742.554c-.176.227-.264.512-.264.852 0 .495.179.873.537 1.134.364.256.824.383 1.381.383Zm12.779-5.309V218h-3.63v-13.091h3.46v2.31h.153a3.65 3.65 0 0 1 1.458-1.807c.682-.449 1.508-.673 2.48-.673.909 0 1.702.199 2.378.596.676.398 1.201.966 1.576 1.705.375.733.563 1.608.563 2.625V218h-3.631v-7.688c.006-.801-.199-1.426-.613-1.874-.415-.455-.986-.682-1.713-.682-.489 0-.921.105-1.296.315-.369.21-.659.517-.869.92-.205.398-.31.878-.316 1.441Zm15.032 7.815c-.835 0-1.579-.145-2.233-.435a3.6 3.6 0 0 1-1.551-1.303c-.375-.58-.562-1.302-.562-2.165 0-.728.133-1.338.4-1.833a3.246 3.246 0 0 1 1.091-1.193 5.315 5.315 0 0 1 1.569-.682c.59-.153 1.21-.261 1.857-.324a46.384 46.384 0 0 0 1.841-.221c.466-.074.804-.182 1.015-.324.21-.142.315-.352.315-.631v-.051c0-.54-.171-.957-.511-1.253-.336-.295-.813-.443-1.432-.443-.654 0-1.174.145-1.56.435a2.001 2.001 0 0 0-.767 1.074l-3.358-.273a4.575 4.575 0 0 1 1.006-2.063c.5-.585 1.145-1.034 1.934-1.346.796-.318 1.716-.477 2.762-.477a8.4 8.4 0 0 1 2.088.255c.67.171 1.264.435 1.781.793.523.358.935.818 1.236 1.381.301.556.452 1.224.452 2.002V218h-3.444v-1.815h-.102c-.21.409-.491.77-.844 1.082a3.895 3.895 0 0 1-1.269.724c-.495.171-1.066.256-1.714.256Zm1.04-2.506c.534 0 1.006-.105 1.415-.315.409-.216.73-.506.963-.869.233-.364.349-.776.349-1.236v-1.389a1.901 1.901 0 0 1-.468.204 8.33 8.33 0 0 1-.657.162c-.244.046-.488.088-.732.128l-.665.094a4.49 4.49 0 0 0-1.117.298 1.79 1.79 0 0 0-.741.554c-.176.227-.264.512-.264.852 0 .495.179.873.537 1.134.363.256.823.383 1.38.383Zm15.047 7.441c-1.176 0-2.185-.162-3.025-.486-.836-.318-1.5-.753-1.995-1.304a4.012 4.012 0 0 1-.963-1.858l3.358-.452c.102.262.264.506.486.733.221.228.514.409.878.546.369.142.818.213 1.346.213.79 0 1.441-.193 1.952-.58.517-.38.776-1.02.776-1.917v-2.395h-.154a3.46 3.46 0 0 1-.716 1.031c-.318.324-.727.588-1.227.793-.5.204-1.097.306-1.79.306-.983 0-1.878-.227-2.684-.681-.802-.461-1.441-1.162-1.918-2.105-.472-.949-.707-2.148-.707-3.597 0-1.483.241-2.722.724-3.716.483-.994 1.125-1.739 1.926-2.233a4.98 4.98 0 0 1 2.651-.741c.733 0 1.346.125 1.841.375.494.244.892.551 1.193.92.307.364.542.722.707 1.074h.137v-2.199h3.605v13.219c0 1.113-.273 2.045-.819 2.795-.545.75-1.301 1.313-2.267 1.688-.96.38-2.065.571-3.315.571Zm.077-8.097c.585 0 1.079-.145 1.483-.434.409-.296.721-.716.937-1.262.222-.551.333-1.21.333-1.977 0-.767-.108-1.432-.324-1.994-.216-.569-.529-1.009-.938-1.321-.409-.313-.906-.469-1.491-.469-.597 0-1.1.162-1.509.486-.409.318-.718.761-.929 1.329-.21.568-.315 1.225-.315 1.969 0 .756.105 1.409.315 1.96.216.546.526.969.929 1.27.409.295.912.443 1.509.443Zm15.179 3.171c-1.347 0-2.506-.273-3.477-.818a5.604 5.604 0 0 1-2.233-2.336c-.523-1.011-.785-2.207-.785-3.588 0-1.346.262-2.528.785-3.545a5.789 5.789 0 0 1 2.207-2.378c.954-.568 2.074-.852 3.358-.852.864 0 1.668.139 2.412.417.75.273 1.403.685 1.96 1.236.563.551 1 1.244 1.313 2.08.312.829.468 1.801.468 2.914v.998h-11.054v-2.25h7.637c0-.523-.114-.986-.341-1.39a2.45 2.45 0 0 0-.946-.946c-.398-.233-.861-.349-1.389-.349-.552 0-1.04.128-1.466.383-.421.25-.75.588-.989 1.015a2.85 2.85 0 0 0-.366 1.406v2.139c0 .648.119 1.207.357 1.679.245.472.589.835 1.032 1.091.443.256.968.383 1.576.383a3.42 3.42 0 0 0 1.108-.17c.336-.114.623-.284.861-.511.239-.228.421-.506.546-.836l3.358.222a4.59 4.59 0 0 1-1.049 2.114c-.522.596-1.199 1.062-2.028 1.397-.824.33-1.776.495-2.855.495Zm8.378-.256v-13.091h3.46v2.31h.153c.273-.767.728-1.372 1.364-1.816.636-.443 1.398-.664 2.284-.664.898 0 1.662.224 2.293.673a3.17 3.17 0 0 1 1.261 1.807h.136c.267-.75.75-1.35 1.449-1.799.705-.454 1.537-.681 2.497-.681 1.222 0 2.213.389 2.975 1.167.767.773 1.15 1.87 1.15 3.29V218h-3.622v-8.088c0-.727-.193-1.273-.579-1.636-.387-.364-.87-.546-1.449-.546-.659 0-1.174.21-1.543.631-.369.415-.554.963-.554 1.645V218h-3.52v-8.165c0-.642-.184-1.153-.554-1.534-.363-.381-.843-.571-1.44-.571-.403 0-.767.102-1.091.307-.318.199-.571.48-.758.844-.188.358-.282.778-.282 1.261V218h-3.63Zm27.856.256c-1.346 0-2.506-.273-3.477-.818a5.61 5.61 0 0 1-2.233-2.336c-.523-1.011-.784-2.207-.784-3.588 0-1.346.261-2.528.784-3.545s1.258-1.81 2.207-2.378c.955-.568 2.074-.852 3.358-.852.864 0 1.668.139 2.412.417.75.273 1.404.685 1.96 1.236.563.551 1 1.244 1.313 2.08.312.829.469 1.801.469 2.914v.998h-11.054v-2.25h7.636c0-.523-.114-.986-.341-1.39a2.444 2.444 0 0 0-.946-.946c-.398-.233-.861-.349-1.389-.349a2.8 2.8 0 0 0-1.466.383c-.42.25-.75.588-.989 1.015-.238.42-.36.889-.366 1.406v2.139c0 .648.119 1.207.358 1.679.244.472.588.835 1.031 1.091.443.256.969.383 1.577.383.403 0 .773-.056 1.108-.17.335-.114.622-.284.861-.511.238-.228.42-.506.545-.836l3.358.222a4.588 4.588 0 0 1-1.048 2.114c-.523.596-1.199 1.062-2.029 1.397-.824.33-1.775.495-2.855.495Zm12.009-7.824V218h-3.631v-13.091h3.46v2.31h.154a3.643 3.643 0 0 1 1.457-1.807c.682-.449 1.509-.673 2.48-.673.909 0 1.702.199 2.378.596a4.057 4.057 0 0 1 1.577 1.705c.375.733.562 1.608.562 2.625V218h-3.631v-7.688c.006-.801-.198-1.426-.613-1.874-.415-.455-.986-.682-1.713-.682-.489 0-.921.105-1.296.315-.369.21-.659.517-.869.92-.205.398-.31.878-.315 1.441Zm18.262-5.523v2.727h-7.884v-2.727h7.884Zm-6.094-3.136h3.631v12.204c0 .335.051.597.153.784.102.182.244.31.426.384.188.074.404.111.648.111.17 0 .341-.015.511-.043l.392-.077.571 2.702c-.181.057-.437.122-.767.196-.329.08-.73.128-1.201.145-.875.034-1.642-.082-2.302-.349a3.218 3.218 0 0 1-1.525-1.245c-.364-.562-.543-1.273-.537-2.13v-12.682Z"/>
  </g>
  <defs>
    <clipPath id="a">
      <path fill="#fff" d="M0 0h1280v710H0z"/>
    </clipPath>
    <pattern id="b" width="1" height="1" patternContentUnits="objectBoundingBox">
      <use xlink:href="#c" transform="scale(.00356 .00333)"/>
    </pattern>
  </defs>
</svg>
